<svg width="48" height="48" viewBox="0 0 48 48" fill="none" xmlns="http://www.w3.org/2000/svg">
<path d="M10 33.018C10.596 33.018 11.265 33.018 12 33.018V19.041C10.89 20.042 10.301 21.253 10 22.162V33.018ZM21 18.105C20.325 17.789 19.248 17.39 18 17.268V33.017C18.976 33.017 19.98 33.017 21 33.017V18.105ZM14 33.018C14.943 33.018 15.95 33.018 17 33.018V17.24C15.827 17.27 14.829 17.47 14 17.798V33.018ZM4 23.953C2.822 24.849 2 26.303 2 27.992C2 29.578 2.795 30.979 4 31.897V23.953ZM40.995 22.016C39.551 22.016 38.712 22.537 38.712 22.537C38.712 22.537 37.873 14.049 29.441 14.049C24.535 14.049 22.611 16.753 22 17.946V33.017C30.825 33.017 40.297 33.017 40.297 33.017C40.297 33.017 46.166 32.923 46.166 27.564C46.166 23.439 42.439 22.016 40.995 22.016ZM8 23.1C7.605 23.049 7.158 23.012 6.659 23.012C6.436 23.012 6.218 23.049 6 23.085V32.852C6.423 32.956 6.861 33.018 7.311 33.018C7.462 33.018 7.704 33.018 8 33.018V23.1Z" fill="#FF5722"/>
</svg>
