<svg width="50" height="50" viewBox="0 0 50 50" fill="none" xmlns="http://www.w3.org/2000/svg">
<path d="M25 5C13.9721 5 5 13.9721 5 25C5 36.0279 13.9721 45 25 45C36.0279 45 45 36.0287 45 25C45 13.9713 36.0279 5 25 5ZM33.4654 33.9895C33.2142 34.3668 32.8004 34.5702 32.3788 34.5702C32.1303 34.5702 31.879 34.4998 31.6565 34.3511C29.5069 32.9178 25.8614 31.9616 22.8191 31.9625C19.5908 31.9642 17.1709 32.757 17.1465 32.7648C16.4651 32.996 15.7254 32.624 15.4976 31.9408C15.2699 31.2576 15.6393 30.5187 16.3225 30.2918C16.4373 30.2536 19.1727 29.3574 22.8191 29.3557C25.8614 29.3539 30.0928 30.1745 33.1038 32.1815C33.7035 32.5814 33.8652 33.3906 33.4654 33.9895ZM36.0661 28.6525C35.7836 29.1062 35.296 29.3557 34.7979 29.3557C34.5284 29.3557 34.2555 29.2835 34.0104 29.1297C30.1128 26.7011 26.1074 26.1874 22.6566 26.2178C18.7607 26.2526 15.6454 26.9957 15.5924 27.0114C14.804 27.2356 13.9747 26.775 13.7496 25.9831C13.5245 25.1895 13.986 24.3646 14.7788 24.1403C15.0196 24.0717 18.1288 23.3067 22.3854 23.2711C26.2665 23.239 31.1028 23.8013 35.5898 26.5968C36.2878 27.0314 36.5025 27.9528 36.0661 28.6525ZM38.6607 22.4114C38.3365 22.9625 37.7559 23.2694 37.1596 23.2694C36.8606 23.2694 36.5581 23.192 36.2808 23.0303C31.7382 20.3636 26.2152 19.7977 22.3819 19.7925C22.3636 19.7925 22.3454 19.7925 22.3271 19.7925C17.6916 19.7925 14.1216 20.6078 14.086 20.6165C13.149 20.8312 12.2163 20.2523 11.999 19.317C11.7817 18.3826 12.3615 17.449 13.2959 17.2309C13.4567 17.1935 17.2708 16.3156 22.3271 16.3156C22.3471 16.3156 22.3671 16.3156 22.3871 16.3156C26.6507 16.3217 32.8274 16.9701 38.0418 20.0315C38.8694 20.5183 39.1466 21.5839 38.6607 22.4114Z" fill="#25D34E"/>
</svg>
